<svg xmlns="http://www.w3.org/2000/svg" width="512" height="512" viewBox="0 0 512 512">
  <defs>
    <linearGradient id="g" x1="0" y1="0" x2="0" y2="1">
      <stop offset="0%" stop-color="#34d399"/>
      <stop offset="100%" stop-color="#10b981"/>
    </linearGradient>
  </defs>
  <!-- Pin shape -->
  <path d="M256 16C152 16 68 100 68 204c0 140 168 284 180 294a12 12 0 0 0 16 0c12-10 180-154 180-294C444 100 360 16 256 16z" fill="url(#g)"/>
  <!-- Speech bubble centered in pin head -->
  <rect x="148" y="112" width="216" height="152" rx="22" fill="#1a1a1a"/>
  <!-- Bubble tail -->
  <polygon points="192,264 224,264 188,300" fill="#1a1a1a"/>
  <!-- Text lines centered -->
  <rect x="184" y="148" width="144" height="14" rx="7" fill="#34d399"/>
  <rect x="184" y="178" width="120" height="14" rx="7" fill="#34d399"/>
  <rect x="184" y="208" width="132" height="14" rx="7" fill="#34d399"/>
</svg>
